<svg xmlns="http://www.w3.org/2000/svg" viewBox="0 0 44 580" width="44" height="580">
	<style>
		tspan { white-space:pre }
		.shp0 { fill: #353541 } 
		.shp1 { fill: #f9f9f9;stroke: #000000;stroke-width: 2 } 
		.shp2 { fill: #fb6470;stroke: #000000;stroke-width: 2 } 
	</style>
	<path id="Shape 10" class="shp0" d="M22 37.67L23.26 37.67L23.26 563.78L22 563.78L22 37.67Z" />
	<path id="Ellipse 4" class="shp1" d="M22 1.25C33.11 1.25 42.11 10.44 42.11 21.78C42.11 33.11 33.11 42.3 22 42.3C10.89 42.3 1.89 33.11 1.89 21.78C1.89 10.44 10.89 1.25 22 1.25Z" />
	<path id="Ellipse 4 copy 2" class="shp2" d="M22 12.56C26.86 12.56 30.8 16.77 30.8 21.97C30.8 27.18 26.86 31.39 22 31.39C17.14 31.39 13.2 27.18 13.2 21.97C13.2 16.77 17.14 12.56 22 12.56Z" />
	<path id="Эллипс 4 копия" class="shp1" d="M22 201.58C33.11 201.58 42.11 210.77 42.11 222.11C42.11 233.44 33.11 242.63 22 242.63C10.89 242.63 1.89 233.44 1.89 222.11C1.89 210.77 10.89 201.58 22 201.58Z" />
	<path id="Ellipse 4 copy 3" class="shp2" d="M22 212.2C26.86 212.2 30.8 216.42 30.8 221.62C30.8 226.82 26.86 231.04 22 231.04C17.14 231.04 13.2 226.82 13.2 221.62C13.2 216.42 17.14 212.2 22 212.2Z" />
	<path id="Ellipse 4" class="shp1" d="M22 338.87C33.11 338.87 42.11 348.06 42.11 359.39C42.11 370.73 33.11 379.92 22 379.92C10.89 379.92 1.89 370.73 1.89 359.39C1.89 348.06 10.89 338.87 22 338.87Z" />
	<path id="Ellipse 4 copy 4" class="shp2" d="M22 350.32C26.86 350.32 30.8 354.54 30.8 359.74C30.8 364.94 26.86 369.15 22 369.15C17.14 369.15 13.2 364.94 13.2 359.74C13.2 354.54 17.14 350.32 22 350.32Z" />
	<path id="Ellipse 4 copy" class="shp1" d="M22 537.94C33.11 537.94 42.11 547.13 42.11 558.47C42.11 569.8 33.11 578.99 22 578.99C10.89 578.99 1.89 569.8 1.89 558.47C1.89 547.13 10.89 537.94 22 537.94Z" />
	<path id="Ellipse 4 copy 5" class="shp2" d="M22 548.71C26.86 548.71 30.8 552.92 30.8 558.13C30.8 563.33 26.86 567.54 22 567.54C17.14 567.54 13.2 563.33 13.2 558.13C13.2 552.92 17.14 548.71 22 548.71Z" />
</svg>