<svg xmlns="http://www.w3.org/2000/svg" viewBox="0 0 20 20" width="20" height="20">
	<defs>
		<linearGradient id="grd1" gradientUnits="userSpaceOnUse"  x1="10.494" y1="18.998" x2="10.494" y2="1.583">
			<stop offset="0" stop-color="#543854"  />
			<stop offset="1" stop-color="#543854" stop-opacity="0" />
		</linearGradient>
	</defs>
	<style>
		tspan { white-space:pre }
		.shp0 { fill: url(#grd1) } 
	</style>
	<path id="Dribbble 3" class="shp0" d="M10.61 19C5.86 19 1.99 14.98 1.99 10.19C1.99 5.41 5.86 1.58 10.61 1.58C15.37 1.58 18.99 5.41 18.99 10.19C18.99 14.98 15.37 19 10.61 19ZM17.72 11.38C17.46 11.3 15.61 10.69 13.3 11.07C14.26 13.73 14.65 15.9 14.73 16.35C16.38 15.23 17.39 13.45 17.72 11.38ZM13.49 17.03C13.38 16.38 12.95 14.11 11.92 11.41C11.9 11.41 11.89 11.42 11.87 11.42C7.72 12.88 6.23 15.78 6.09 16.06C7.34 17.04 8.91 17.84 10.61 17.84C11.63 17.84 12.61 17.41 13.49 17.03ZM5.14 15.16C5.31 14.88 7.33 11.51 11.13 10.27C11.23 10.24 11.32 10.21 11.42 10.18C11.23 9.76 11.03 9.34 10.82 8.92C7.15 10.03 3.58 9.98 3.26 9.98C3.25 10.05 3.25 10.13 3.25 10.2C3.25 12.11 3.97 13.85 5.14 15.16ZM3.41 8.69C3.74 8.69 6.77 8.7 10.21 7.78C8.99 5.6 7.61 3.69 7.41 3.42C5.35 4.4 3.88 6.38 3.41 8.69ZM8.89 2.99C9.09 3.27 10.43 5.1 11.64 7.34C14.25 6.35 15.43 4.78 15.57 4.59C14.27 3.42 12.49 2.72 10.61 2.72C10.02 2.72 9.44 2.86 8.89 2.99ZM16.39 5.44C16.23 5.65 14.92 7.32 12.2 8.44C12.37 8.79 12.54 9.15 12.69 9.51C12.75 9.64 12.8 9.77 12.85 9.9C15.3 9.59 17.64 10.08 17.88 10.14C17.86 8.38 17.41 6.7 16.39 5.44Z" />
</svg>