<svg xmlns="http://www.w3.org/2000/svg" viewBox="0 0 36 35" width="36" height="35">
	<style>
		tspan { white-space:pre }
		.shp0 { fill: #3e3e3e } 
	</style>
	<path id="Home" class="shp0" d="M33.11 15.85L20.11 2.83C18.97 1.7 17 1.7 15.86 2.83L2.86 15.85C1.69 17.02 1.69 18.92 2.86 20.09C3.43 20.66 4.18 20.97 4.98 20.97C5.33 20.97 5.67 20.9 5.98 20.79L5.98 31.98C5.98 33.09 6.88 33.99 7.98 33.99L11.98 33.99C13.09 33.99 13.98 33.09 13.98 31.98L13.98 24.98L21.98 24.98L21.98 31.98C21.98 33.09 22.88 33.99 23.98 33.99L27.98 33.99C29.09 33.99 29.98 33.09 29.98 31.98L29.98 20.79C30.3 20.9 30.64 20.97 30.98 20.97C31.79 20.97 32.54 20.66 33.11 20.09C34.28 18.92 34.28 17.02 33.11 15.85ZM17.98 3.96C18.25 3.96 18.5 4.06 18.69 4.25C19.08 4.64 19.08 5.27 18.69 5.66L17.98 6.37L17.28 5.66C16.89 5.27 16.89 4.64 17.28 4.25C17.47 4.06 17.72 3.96 17.98 3.96ZM4.28 18.68C3.89 18.29 3.89 17.65 4.28 17.26L15.29 6.24C15.43 6.54 15.61 6.83 15.86 7.08L16.57 7.79L5.69 18.68C5.31 19.05 4.66 19.05 4.28 18.68ZM23.98 31.98L23.98 24.98C23.98 23.87 23.09 22.97 21.98 22.97L13.98 22.97C12.88 22.97 11.98 23.87 11.98 24.98L11.98 31.98L7.98 31.98L7.98 19.21L17.98 9.2L27.98 19.21L27.98 31.98L23.98 31.98ZM31.69 18.68C31.31 19.05 30.66 19.05 30.28 18.68L19.4 7.79L20.11 7.08C20.35 6.83 20.54 6.54 20.68 6.24L31.69 17.26C32.08 17.65 32.08 18.29 31.69 18.68ZM17.98 12.96C15.78 12.96 13.98 14.76 13.98 16.97C13.98 19.18 15.78 20.97 17.98 20.97C20.19 20.97 21.98 19.18 21.98 16.97C21.98 14.76 20.19 12.96 17.98 12.96ZM17.98 18.97C16.88 18.97 15.98 18.07 15.98 16.97C15.98 15.87 16.88 14.97 17.98 14.97C19.09 14.97 19.98 15.87 19.98 16.97C19.98 18.07 19.09 18.97 17.98 18.97Z" />
</svg>