<svg xmlns="http://www.w3.org/2000/svg" viewBox="0 0 35 35" width="35" height="35">
	<style>
		tspan { white-space:pre }
		.shp0 { fill: #3e3e3e } 
	</style>
	<path id="Mail_2" class="shp0" d="M2.43 22.18L32.42 1.18C32.42 1.18 32.43 1.18 32.43 1.18C32.43 1.18 32.44 1.18 32.45 1.17C32.47 1.16 32.5 1.15 32.53 1.13C32.56 1.12 32.59 1.1 32.62 1.09C32.66 1.07 32.7 1.06 32.74 1.04C32.77 1.03 32.81 1.03 32.85 1.02C32.87 1.02 32.89 1.01 32.92 1.01C32.93 1.01 32.94 1.01 32.95 1.01C33 1 33.04 1.01 33.09 1.02C33.12 1.02 33.16 1.02 33.2 1.03C33.23 1.03 33.26 1.04 33.29 1.05C33.32 1.06 33.35 1.08 33.38 1.09C33.42 1.11 33.46 1.12 33.5 1.14C33.51 1.14 33.51 1.15 33.52 1.15C33.52 1.16 33.53 1.16 33.53 1.16C33.55 1.17 33.55 1.18 33.57 1.19C33.58 1.2 33.6 1.22 33.62 1.23C33.63 1.24 33.65 1.25 33.67 1.26C33.68 1.27 33.68 1.28 33.69 1.29C33.72 1.32 33.75 1.36 33.78 1.4C33.8 1.42 33.82 1.45 33.84 1.48C33.86 1.51 33.88 1.54 33.9 1.57C33.91 1.59 33.91 1.61 33.92 1.63C33.93 1.67 33.94 1.7 33.95 1.74C33.96 1.76 33.97 1.78 33.97 1.8C33.98 1.83 33.98 1.87 33.98 1.9C33.99 1.94 33.99 1.97 33.99 2.01C33.99 2.04 34 2.07 33.99 2.1L31 32.09C30.97 32.43 30.77 32.72 30.47 32.88C30.18 33.04 29.82 33.03 29.53 32.87L18.53 26.87C18.5 26.86 18.49 26.84 18.47 26.82L14.85 32.53C14.82 32.58 14.78 32.62 14.74 32.67C14.72 32.68 14.72 32.7 14.7 32.71C14.62 32.79 14.52 32.85 14.42 32.9C14.4 32.91 14.38 32.92 14.35 32.92C14.24 32.97 14.13 32.99 14.01 32.99L14.01 32.99C14.01 32.99 14.01 32.99 14.01 32.99L14.01 32.99C13.89 32.99 13.77 32.97 13.66 32.93C13.63 32.91 13.6 32.9 13.57 32.88C13.54 32.87 13.5 32.86 13.47 32.84C13.44 32.82 13.42 32.79 13.4 32.77C13.34 32.72 13.29 32.68 13.25 32.63C13.21 32.58 13.17 32.53 13.14 32.47C13.11 32.41 13.09 32.36 13.07 32.3C13.05 32.23 13.03 32.17 13.03 32.1C13.02 32.06 13.01 32.03 13.01 31.99L13.01 23.99L3.01 23.99C2.57 23.99 2.18 23.71 2.05 23.3C1.92 22.88 2.08 22.43 2.43 22.18ZM15.01 28.55L25.91 11.33L15.01 23.38L15.01 28.55ZM29.16 30.39L31.58 6.11L19.53 25.14L29.16 30.39ZM13.56 21.99L26.31 7.9L6.18 21.99L13.56 21.99Z" />
</svg>