<svg xmlns="http://www.w3.org/2000/svg" viewBox="0 0 38 34" width="38" height="34">
	<style>
		tspan { white-space:pre }
		.shp0 { fill: #3e3e3e } 
	</style>
	<path id="Phone_2" class="shp0" d="M9.08 32.99C8.13 32.99 7.24 32.62 6.57 31.95L5.67 31.05C1.74 27.13 4.9 17.83 12.86 9.88C18.35 4.41 24.7 1.01 29.44 1.01C31.36 1.01 32.97 1.6 34.08 2.7L34.97 3.6C35.65 4.27 36.02 5.16 36.02 6.11C36.02 7.06 35.65 7.95 34.97 8.62L31.38 12.21C30.04 13.55 27.69 13.54 26.35 12.21L25.45 11.31C25.16 11.02 24.79 10.88 24.32 10.88C23.42 10.88 21.39 11.4 17.89 14.9C13.77 19 13.33 21.49 14.29 22.45L15.19 23.35C16.58 24.73 16.58 26.98 15.19 28.36L11.6 31.95C10.92 32.62 10.03 32.99 9.08 32.99ZM29.44 3.03C25.28 3.03 19.33 6.28 14.29 11.31C7.37 18.22 4.07 26.61 7.1 29.63L8 30.52C8.58 31.1 9.59 31.1 10.17 30.52L13.76 26.93C14.36 26.34 14.36 25.37 13.76 24.77L12.86 23.87C11.84 22.85 10.14 19.78 16.46 13.47C19.53 10.41 22.17 8.86 24.32 8.86C25.33 8.86 26.21 9.22 26.88 9.88L27.78 10.78C28.36 11.36 29.37 11.36 29.95 10.78L33.55 7.19C33.84 6.9 34 6.52 34 6.11C34 5.7 33.84 5.32 33.55 5.03L32.65 4.13C31.91 3.4 30.84 3.03 29.44 3.03Z" />
</svg>