<svg xmlns="http://www.w3.org/2000/svg" viewBox="0 0 20 19" width="20" height="19">
	<defs>
		<linearGradient id="grd1" gradientUnits="userSpaceOnUse"  x1="10.305" y1="17.405" x2="10.305" y2="1.188">
			<stop offset="0" stop-color="#543854"  />
			<stop offset="1" stop-color="#543854" stop-opacity="0" />
		</linearGradient>
	</defs>
	<style>
		tspan { white-space:pre }
		.shp0 { fill: url(#grd1) } 
	</style>
	<path id="Skype" fill-rule="evenodd" class="shp0" d="M9.13 1.85C9.53 1.78 9.94 1.74 10.35 1.74C14.49 1.74 17.84 5.12 17.84 9.28C17.84 9.35 17.84 9.42 17.84 9.48L17.88 9.59C18.52 10.41 18.93 11.44 18.93 12.57C18.93 15.24 16.66 17.41 14.01 17.41C12.47 17.42 11.62 16.77 11.62 16.77L11.55 16.73C11.55 16.73 10.72 16.83 10.35 16.83C6.22 16.83 2.87 13.45 2.87 9.28C2.87 9.18 2.91 9.05 2.91 9.05C2.27 8.23 1.68 7.2 1.68 6.08C1.68 3.4 4.05 1.19 6.7 1.19C7.57 1.19 8.38 1.47 9.08 1.87L9.13 1.85ZM7.76 4.92C6.87 5.47 6.27 6.32 6.27 7.23C6.27 8.24 6.85 8.96 7.64 9.37C8.42 9.79 9.29 10.04 10.23 10.13C11.28 10.22 11.96 10.59 12.22 10.98C12.48 11.37 12.48 11.76 12.22 12.15C11.96 12.55 11.34 12.78 10.29 12.78C9.03 12.69 8.08 12.2 7.56 11.65C7.56 11.65 7.01 11.05 6.32 11.66C5.5 12.34 6.14 12.96 6.14 12.96C6.67 13.41 7.14 13.86 7.87 14.13C8.61 14.41 9.52 14.55 10.62 14.55C11.77 14.55 12.79 14.25 13.65 13.65C14.52 13.05 14.96 12.34 14.96 11.51C14.96 10.45 14.55 9.68 13.74 9.2C12.92 8.71 12.02 8.43 11.02 8.34C10.08 8.2 9.34 7.94 9.08 7.66C8.82 7.38 8.76 6.78 9.02 6.39C9.29 6 9.93 5.69 11.06 5.82C11.91 6 12.47 6.42 13.1 6.88C13.1 6.88 13.74 7.15 14.17 6.62C14.68 5.91 14.16 5.38 14.16 5.38C14.16 5.38 13.71 4.77 13.11 4.54C12.5 4.31 11.65 4.01 10.56 4.01C9.61 4.01 8.66 4.36 7.76 4.92Z" />
</svg>