<svg xmlns="http://www.w3.org/2000/svg" viewBox="0 0 24 18" width="24" height="18">
	<defs>
		<linearGradient id="grd1" gradientUnits="userSpaceOnUse"  x1="12.225" y1="16.584" x2="12.225" y2="1.461">
			<stop offset="0" stop-color="#1c1c1c"  />
			<stop offset="1" stop-color="#1c1c1c" stop-opacity="0" />
		</linearGradient>
	</defs>
	<style>
		tspan { white-space:pre }
		.shp0 { fill: url(#grd1) } 
	</style>
	<path id="Twitter" class="shp0" d="M2.18 12.65C2.18 12.65 4.95 13.92 6.09 13.92C6.09 13.92 8.28 14.51 9.73 12.63C9.73 12.63 10.08 12.11 9.6 11.86C9.6 11.86 4.89 10.48 5.23 9.67C5.23 9.67 5.2 9.22 5.81 9.32C5.81 9.32 6.49 8.64 6.16 8.44C6.16 8.44 5.64 7.76 6.05 7.72C6.05 7.72 7.12 8.01 7.51 8.11C7.51 8.11 7.78 8.01 7.53 7.82C7.28 7.64 6.84 7.27 6.92 7.19C6.92 7.19 7.1 6.78 7.76 7.07C7.76 7.07 7.97 7.03 7.78 6.82C7.78 6.82 7.3 6.49 7.57 6.22C7.57 6.22 8.34 5.67 10.28 8.02C10.28 8.02 10.63 8.5 10.68 8.04C10.68 8.04 12.08 2.06 14.36 1.67C14.36 1.67 15.09 1.81 15.23 1.59C15.23 1.59 15.87 1.34 16.08 1.54C16.08 1.54 16.28 1.86 16.53 1.67C16.53 1.67 17.43 1.32 17.16 1.9C17.16 1.9 16.24 2.72 15.92 2.74C15.61 2.76 15.67 3.06 15.94 3.1C15.94 3.1 19.76 3.43 19.76 6.22C19.76 6.22 19.98 6.88 20.69 6.2C20.69 6.2 21.77 5.51 22.04 5.48C22.04 5.48 22.33 5.29 22.29 5.73C22.29 5.73 21.52 7.06 20.72 7.44C20.72 7.44 20.24 8.04 20.93 7.92C20.93 7.92 21.6 7.78 21.91 7.59C21.91 7.59 22.73 7.2 22.35 7.9C22.35 7.9 20.64 9.01 20.26 9.01C20.26 9.01 20.01 9.07 20.01 9.3C20.01 9.3 19.78 16.58 10.23 16.58C10.23 16.58 5.44 16.86 2.31 13.19C2.31 13.19 1.7 12.55 2.18 12.65Z" />
</svg>